<svg xmlns="http://www.w3.org/2000/svg" width="30" height="30" fill="none"><g clip-path="url(#a)" filter="url(#b)"><path fill="#EEECEA" d="M22.075 24.776c6.8-6.397 8.661-15.765 3.852-20.878-4.81-5.112-14.612-5.559-21.412.838-2.22 2.088-3.243 3.987-3.122 5.802.104 1.609 1.12 3.083 3.098 4.506 1.656 1.178.656 3.25-.828 5.834-.56.972-1.045 1.817-1.152 2.492-.575 3.51.844 5.068 2.128 5.752 4.073 2.16 12.614.19 17.436-4.346m1.79-10.325a2.72 2.72 0 0 1-3.844-.123 2.716 2.716 0 0 1 .117-3.838 2.72 2.72 0 0 1 3.844.112 2.727 2.727 0 0 1-.118 3.848ZM17.493 3.97a2.72 2.72 0 0 1 3.843.113 2.727 2.727 0 0 1-.117 3.848 2.72 2.72 0 0 1-3.843-.122 2.716 2.716 0 0 1 .117-3.839m-7.815.665a2.716 2.716 0 0 1 3.839.117 2.72 2.72 0 0 1-.113 3.844 2.72 2.72 0 0 1-3.843-.122 2.716 2.716 0 0 1 .117-3.84Zm6.794 12.102a2.72 2.72 0 0 1 3.843.123 2.716 2.716 0 0 1-3.956 3.721 2.72 2.72 0 0 1 .113-3.844m-6.004 4.591a2.716 2.716 0 0 1 3.839.117 2.72 2.72 0 0 1-.113 3.844 2.72 2.72 0 0 1-3.844-.122 2.716 2.716 0 0 1 .118-3.839"/></g><defs><clipPath id="a"><path fill="#fff" d="M0 0h30v30H0z"/></clipPath><filter id="b" width="30" height="30.944" x="0" y="0" color-interpolation-filters="sRGB" filterUnits="userSpaceOnUse"><feFlood flood-opacity="0" result="BackgroundImageFix"/><feBlend in="SourceGraphic" in2="BackgroundImageFix" result="shape"/><feColorMatrix in="SourceAlpha" result="hardAlpha" values="0 0 0 0 0 0 0 0 0 0 0 0 0 0 0 0 0 0 127 0"/><feOffset dy=".944"/><feGaussianBlur stdDeviation="1.416"/><feComposite in2="hardAlpha" k2="-1" k3="1" operator="arithmetic"/><feColorMatrix values="0 0 0 0 0 0 0 0 0 0 0 0 0 0 0 0 0 0 0.18 0"/><feBlend in2="shape" result="effect1_innerShadow_759_291"/><feColorMatrix in="SourceAlpha" result="hardAlpha" values="0 0 0 0 0 0 0 0 0 0 0 0 0 0 0 0 0 0 127 0"/><feOffset dy=".472"/><feComposite in2="hardAlpha" k2="-1" k3="1" operator="arithmetic"/><feColorMatrix values="0 0 0 0 1 0 0 0 0 1 0 0 0 0 1 0 0 0 1 0"/><feBlend in2="effect1_innerShadow_759_291" result="effect2_innerShadow_759_291"/></filter></defs></svg>