<svg xmlns="http://www.w3.org/2000/svg" width="30" height="30" fill="none"><g fill="#EEECEA" clip-path="url(#a)" filter="url(#b)"><path d="M13.535 30h2.93c.97 0 1.758-.787 1.758-1.758h-6.446c0 .971.787 1.758 1.758 1.758M29.121 9.96h-1.758a.879.879 0 0 0 0 1.759h1.758a.879.879 0 0 0 0-1.758Zm-1.904-3.34 1.522-.878a.879.879 0 0 0-.879-1.523l-1.522.88a.879.879 0 0 0 .879 1.522Zm1.523 9.318-1.523-.879a.879.879 0 1 0-.879 1.523l1.522.878a.879.879 0 0 0 .88-1.522M2.637 11.719a.879.879 0 0 0 0-1.758H.879a.879.879 0 0 0 0 1.758zm1.025-6.621L2.14 4.22a.879.879 0 0 0-.88 1.523l1.523.879a.879.879 0 0 0 .88-1.523Zm.322 10.283a.88.88 0 0 0-1.2-.322l-1.523.88a.879.879 0 0 0 .879 1.521l1.522-.878a.88.88 0 0 0 .322-1.201m20.324-7.042c.237-.501.36-1.043.36-1.6a3.815 3.815 0 0 0-3.013-3.726A3.815 3.815 0 0 0 17.93 0h-.023c-1.125.007-2.028.936-2.028 2.062v8.78a4.37 4.37 0 0 1 2.637-.881.879.879 0 0 1 0 1.758 2.64 2.64 0 0 0-2.637 2.636v5.263c0 1.125.903 2.055 2.028 2.062h.023a3.815 3.815 0 0 0 3.725-3.014 3.815 3.815 0 0 0 3.013-3.725c0-.557-.123-1.1-.36-1.6a3.75 3.75 0 0 0 .946-2.501c0-.936-.338-1.814-.946-2.501M12.093 21.68c1.126-.007 2.028-.937 2.028-2.062v-5.262a2.64 2.64 0 0 0-2.637-2.637.879.879 0 0 1 0-1.758c.989 0 1.902.328 2.637.881v-8.78C14.121.936 13.22.007 12.093 0h-.023a3.815 3.815 0 0 0-3.725 3.013 3.815 3.815 0 0 0-3.013 3.725c0 .558.123 1.1.36 1.6a3.75 3.75 0 0 0-.946 2.502c0 .936.338 1.814.946 2.501-.237.5-.36 1.043-.36 1.6a3.815 3.815 0 0 0 3.013 3.725 3.815 3.815 0 0 0 3.725 3.014zm5.807 1.758a3.79 3.79 0 0 1-2.9-1.382 3.78 3.78 0 0 1-2.897 1.382h-.033a5.6 5.6 0 0 1-2.05-.394v1.39c0 1.131.92 2.05 2.05 2.05h5.86c1.13 0 2.05-.919 2.05-2.05v-1.39a5.6 5.6 0 0 1-2.05.394z"/></g><defs><clipPath id="a"><path fill="#fff" d="M0 0h30v30H0z"/></clipPath><filter id="b" width="30" height="31.138" x="0" y="0" color-interpolation-filters="sRGB" filterUnits="userSpaceOnUse"><feFlood flood-opacity="0" result="BackgroundImageFix"/><feBlend in="SourceGraphic" in2="BackgroundImageFix" result="shape"/><feColorMatrix in="SourceAlpha" result="hardAlpha" values="0 0 0 0 0 0 0 0 0 0 0 0 0 0 0 0 0 0 127 0"/><feOffset dy="1.138"/><feGaussianBlur stdDeviation="1.707"/><feComposite in2="hardAlpha" k2="-1" k3="1" operator="arithmetic"/><feColorMatrix values="0 0 0 0 0 0 0 0 0 0 0 0 0 0 0 0 0 0 0.18 0"/><feBlend in2="shape" result="effect1_innerShadow_759_294"/><feColorMatrix in="SourceAlpha" result="hardAlpha" values="0 0 0 0 0 0 0 0 0 0 0 0 0 0 0 0 0 0 127 0"/><feOffset dy=".569"/><feComposite in2="hardAlpha" k2="-1" k3="1" operator="arithmetic"/><feColorMatrix values="0 0 0 0 1 0 0 0 0 1 0 0 0 0 1 0 0 0 1 0"/><feBlend in2="effect1_innerShadow_759_294" result="effect2_innerShadow_759_294"/></filter></defs></svg>