<svg xmlns="http://www.w3.org/2000/svg" width="88" height="40" fill="none"><g clip-path="url(#a)"><path fill="#060612" d="m18.777 8.713-7.463 2.33a.42.42 0 0 0-.273.273l-2.33 7.462a.941.941 0 0 1-1.773.047L.624 1.83A.943.943 0 0 1 1.83.625L18.824 6.94a.941.941 0 0 1-.047 1.774Z"/></g><rect width="73" height="25" x="15" y="15" fill="#060612" rx="12.5"/><rect width="72" height="24" x="15.5" y="15.5" stroke="#000" stroke-opacity=".05" rx="12"/><path fill="#fff" fill-opacity=".9" d="m25.252 32 2.424-8.52h1.848L31.948 32h-1.524L28.6 25.16 26.776 32zm1.488-2.016.408-1.332h2.904l.408 1.332zm10.363.912-1.344-5.592.18-.024V32h-1.392v-8.52h1.8l1.476 5.928h-.456l1.476-5.928h1.8V32h-1.392v-6.72l.18.024-1.344 5.592zM43.243 32l2.424-8.52h1.848L49.939 32h-1.524l-1.824-6.84L44.767 32zm1.488-2.016.408-1.332h2.904l.408 1.332zM52.778 32v-8.52h1.596l2.58 6.12v-6.12h1.44V32h-1.596l-2.58-6.12V32zm9.115 0v-8.52h2.124q1.164 0 2.004.504.852.492 1.296 1.452.456.948.456 2.316t-.456 2.316q-.444.948-1.296 1.44-.84.492-2.004.492zm1.476-1.368h.648q1.068 0 1.644-.72t.576-2.16q0-1.452-.576-2.172-.576-.732-1.644-.732h-.648zM70.23 32l2.424-8.52H74.5L76.925 32H75.4l-1.824-6.84L71.753 32h-1.524Zm1.488-2.016.408-1.332h2.904l.408 1.332z"/><defs><clipPath id="a"><path fill="#fff" d="M0 0h20v20H0z"/></clipPath></defs></svg>