<svg xmlns="http://www.w3.org/2000/svg" width="100" height="213" fill="none"><g fill="#DF561B" clip-path="url(#a)"><path d="M57.856 212.313s39.366-3.44 41.946-38.412c2.103-30.289-13.568-47.775 0-58.19 0 0-14.046-3.057-16.148 22.359 0 0-26.85-10.415-2.962-39.462s14.62-47.298 3.631-59.719C73.431 26.467 62.06 17.103 66.17 0c0 0-10.129 9.65-8.313 19.683 3.057 16.435 22.454 39.08 6.306 46.724 0 0-16.243 4.014-14.046-17.676 0 0-18.25 5.064-24.747 22.836-5.542 15.193-13.186 38.985 25.225 77.396s7.262 63.35 7.262 63.35Z"/><path d="M54.51 211.832s19.588-15.479 1.72-41.469C38.458 144.278-6.833 129.658 9.22 68.793c0 0-11.562 20.161-8.791 46.437 2.77 26.277 26.18 43.953 26.563 58.764.478 14.906-16.913 13.377-20.161 2.293 0 0-3.822 9.077 5.733 20.257 9.65 11.275 26.85 17.39 41.946 15.288"/></g><defs><clipPath id="a"><path fill="#fff" d="M0 0h100v213H0z"/></clipPath></defs></svg>