<svg xmlns="http://www.w3.org/2000/svg" width="26" height="26" fill="none"><path fill="#FF6321" d="M13 26c7.18 0 13-5.82 13-13S20.18 0 13 0 0 5.82 0 13s5.82 13 13 13"/><path fill="#060612" d="M7.826 11.252A1.652 1.652 0 1 0 6.82 8.105a1.652 1.652 0 0 0 1.006 3.147m12.454-1.19a1.652 1.652 0 1 0-3.215-.76 1.652 1.652 0 0 0 3.216.76ZM8.71 17.637s.034-.042.096-.11q.047-.055.116-.123l.073-.073.084-.078c.058-.057.123-.11.194-.172q.053-.046.11-.091.057-.047.119-.093a5.8 5.8 0 0 1 1.923-.96 5.5 5.5 0 0 1 .775-.16 6 6 0 0 1 1.6.004 5.8 5.8 0 0 1 2.927 1.304c.071.06.136.113.195.17l.083.078.073.073q.07.069.116.12c.063.07.097.111.097.111v.226l-.097.006-.272.015-.423.02q-.247.013-.55.021l-.649.02q-.346.011-.724.016c-.252.003-.511.01-.776.01l-.8.004-.8-.004c-.264 0-.524-.007-.775-.01q-.378-.005-.725-.017l-.65-.018a20 20 0 0 1-.548-.022l-.423-.02-.273-.015-.096-.007z"/></svg>