<svg xmlns="http://www.w3.org/2000/svg" width="26" height="26" fill="none"><path fill="#FF6321" d="M13 26c7.18 0 13-5.82 13-13S20.18 0 13 0 0 5.82 0 13s5.82 13 13 13"/><path fill="#060612" d="M3.61 10.454a.54.54 0 0 1-.49-.768c.036-.077.89-1.876 2.448-2.024 1.043-.099 2.075.552 3.072 1.935a.54.54 0 0 1-.876.632c-.52-.721-1.306-1.566-2.093-1.491-.934.088-1.565 1.39-1.57 1.403a.54.54 0 0 1-.49.313Zm14.19 0a.54.54 0 0 1-.49-.768c.037-.077.89-1.876 2.449-2.024 1.042-.099 2.075.552 3.072 1.935a.54.54 0 0 1-.877.632c-.52-.721-1.306-1.566-2.093-1.491-.934.088-1.564 1.39-1.57 1.403a.54.54 0 0 1-.49.313Zm-.14 4.22s-.036.081-.104.213l-.057.11-.069.124c-.024.043-.05.093-.08.141l-.09.15a8.3 8.3 0 0 1-1.055 1.392c-.437.46-.947.862-1.493 1.132a3.8 3.8 0 0 1-.842.31 3.7 3.7 0 0 1-.869.1 3.8 3.8 0 0 1-1.71-.42c-.547-.271-1.056-.673-1.493-1.132a8.3 8.3 0 0 1-1.056-1.387l-.09-.148-.08-.141-.068-.123-.058-.11c-.068-.13-.104-.211-.104-.211v-.433l.104-.011c.069-.007.169-.021.296-.03l.46-.039q.267-.025.596-.043.328-.022.705-.037c.25-.01.514-.024.787-.03s.556-.017.842-.018l.87-.008.868.008c.287 0 .57.013.842.018.273.005.537.018.787.029a27 27 0 0 1 1.302.08l.46.04c.127.009.227.023.295.03l.105.011v.433Z"/></svg>