<svg xmlns="http://www.w3.org/2000/svg" width="157" height="50" fill="none"><rect width="48.611" height="48.611" x=".694" y=".694" fill="#fff" stroke="#E7E2DD" stroke-width="1.389" rx="10.409"/><path fill="#FF6321" d="m20.503 16.185 8.097 8.06c.432.433.432 1.116 0 1.512l-8.097 8.06c-.432.433-1.115.433-1.511 0l-8.06-8.06c-.433-.432-.433-1.115 0-1.511l8.06-8.06c.432-.433 1.115-.433 1.511 0Z"/><path fill="#060612" d="m31.983 25.754-6.442 6.442a1.08 1.08 0 0 0 .36 1.763c1.08.396 2.231.647 3.455.647 5.65 0 10.148-4.857 9.536-10.615-.468-4.426-3.995-7.989-8.385-8.528a9.7 9.7 0 0 0-4.57.575c-.72.288-.935 1.224-.396 1.764l6.442 6.44c.431.433.431 1.08 0 1.512M62.38 36.5l8.282-22.97h5.144l8.282 22.97h-4.4l-1.909-5.435h-9.09l-1.91 5.435h-4.4Zm7.538-9.026h6.632l-3.3-9.706zM92.646 41.74q-2.265 0-3.882-.614-1.618-.615-2.62-1.748a6.2 6.2 0 0 1-1.36-2.555l4.271-.292q.323.97 1.1 1.52.81.551 2.491.55 1.91 0 2.944-.873 1.036-.84 1.036-2.652v-2.2q-.615 1.26-1.974 2.038-1.36.744-3.041.744-2.136 0-3.818-1.035-1.65-1.068-2.588-2.945-.938-1.908-.938-4.4 0-2.49.906-4.367.938-1.91 2.588-2.977 1.65-1.1 3.785-1.1 1.877 0 3.236.841t1.973 2.233v-2.685h4.044v15.755q0 2.2-1.035 3.721-1.004 1.521-2.847 2.265-1.812.776-4.27.776Zm-.064-9.318q1.843 0 2.944-1.358 1.1-1.391 1.132-3.818.033-1.617-.485-2.75-.486-1.165-1.424-1.78-.906-.645-2.167-.646-1.91 0-2.977 1.423-1.035 1.391-1.035 3.753t1.068 3.785q1.1 1.392 2.944 1.391m11.78 4.077V19.224h3.753l.162 4.852-.486-.194q.26-1.812 1.068-2.911.809-1.1 1.973-1.618t2.556-.518q1.91 0 3.203.841 1.327.842 2.006 2.33.68 1.456.68 3.397V36.5h-4.142v-9.77q0-1.456-.291-2.46-.29-1.002-.97-1.52-.648-.55-1.747-.55-1.65 0-2.653 1.165-.97 1.165-.971 3.364V36.5zm25.555.388q-2.556 0-4.497-1.1-1.909-1.132-2.976-3.17-1.036-2.04-1.036-4.756 0-2.75 1.036-4.756 1.067-2.039 2.976-3.138 1.941-1.133 4.497-1.133t4.465 1.133q1.909 1.1 2.944 3.138 1.068 2.005 1.068 4.756 0 2.718-1.068 4.756-1.035 2.037-2.944 3.17-1.91 1.1-4.465 1.1m0-3.364q2.006 0 3.074-1.489 1.1-1.488 1.1-4.173 0-2.654-1.1-4.141-1.068-1.521-3.074-1.521t-3.106 1.52q-1.1 1.489-1.1 4.142 0 2.685 1.1 4.173 1.1 1.49 3.106 1.489m17.722 3.364q-2.556 0-4.303-.744-1.714-.744-2.653-2.07a5.9 5.9 0 0 1-1.067-3.01l4.238-.193q.226 1.358 1.132 2.103.906.744 2.686.744 1.455 0 2.264-.453.841-.486.841-1.489 0-.582-.291-.97t-1.1-.68q-.809-.291-2.394-.582-2.653-.453-4.173-1.1-1.521-.68-2.168-1.682-.615-1.004-.615-2.491 0-2.427 1.844-3.915 1.877-1.52 5.468-1.52 2.33 0 3.915.776 1.585.744 2.459 2.07.905 1.294 1.132 2.977l-4.174.194a4.1 4.1 0 0 0-.582-1.52 2.6 2.6 0 0 0-1.132-.971q-.712-.356-1.683-.356-1.456 0-2.2.582-.744.583-.744 1.553 0 .679.324 1.133.355.453 1.132.744.777.258 2.071.485 2.717.42 4.27 1.1 1.585.647 2.233 1.682.68 1.003.679 2.427 0 1.65-.938 2.814-.906 1.165-2.588 1.78-1.65.582-3.883.582"/></svg>