<svg xmlns="http://www.w3.org/2000/svg" width="14" height="14" fill="none"><path fill="#fff" fill-rule="evenodd" d="M13.707 1.707A1 1 0 0 0 12.293.293L7.485 5.1l1.262 1.566 4.96-4.96ZM5.253 7.333l1.262 1.566-4.808 4.808a1 1 0 0 1-1.414-1.414z" clip-rule="evenodd"/><path fill="#fff" d="M1.602 0C.741 0 .31 0 .13.227a.6.6 0 0 0-.116.241c-.064.283.207.618.747 1.29l9.538 11.84c.142.175.212.263.305.318a1 1 0 0 0 .097.046c.101.038.214.038.44.038h1.255c.862 0 1.293 0 1.473-.227a.6.6 0 0 0 .116-.241c.063-.283-.207-.618-.748-1.29L3.7.402C3.558.227 3.488.14 3.394.084a1 1 0 0 0-.096-.046C3.197 0 3.084 0 2.858 0z"/></svg>