<svg xmlns="http://www.w3.org/2000/svg" width="115" height="24" fill="none"><g fill="#060612" clip-path="url(#a)"><path d="M8.701 23.458q-3.512-.116-5.308-1.587-1.797-1.51-2.595-3.368Q0 16.607 0 14.671q0-2.013.758-3.871.799-1.897 2.595-3.368 1.836-1.509 4.63-1.548h12.932q2.793.039 4.59 1.548 1.836 1.47 2.594 3.368a9.7 9.7 0 0 1 .798 3.87q0 1.937-.798 3.833-.798 1.858-2.594 3.368-1.796 1.47-5.309 1.587zm-.878-12.387q-.759 0-1.317.62a3.7 3.7 0 0 0-.838 1.393 5.2 5.2 0 0 0-.24 1.548q0 .813.24 1.626.279.774.838 1.393.558.582 1.317.62h13.251q.759-.038 1.317-.62.56-.618.799-1.393.28-.813.28-1.626a4.5 4.5 0 0 0-.28-1.548 3.34 3.34 0 0 0-.799-1.394q-.558-.62-1.317-.62zm51.009-2.942q0 .968-.799 1.626-.758.619-1.875.619H39.274q-.519 0-.838.194a1.5 1.5 0 0 0-.479.425q-.16.194-.16.349 0 .193.16.425.16.195.479.388.32.154.838.193h13.052q2.515.04 4.15.968 1.638.89 2.316 2.129.718 1.2.718 2.439 0 1.2-.718 2.438-.72 1.2-2.355 2.13-1.596.89-4.111.89a8 8 0 0 1-.639.038H36.201q-1.118 0-1.916-.619-.758-.659-.758-1.587 0-.968.798-1.626.757-.62 1.876-.62h16.444q.599.04.958-.154.4-.194.599-.426.2-.233.2-.464 0-.117-.2-.387a1.2 1.2 0 0 0-.6-.465q-.358-.193-.957-.232H39.554q-2.315-.039-3.832-.93-1.517-.928-2.156-2.128-.638-1.2-.638-2.4t.638-2.362q.679-1.2 2.156-2.051 1.516-.89 3.832-.968.398-.039.598-.039h16.006q1.117 0 1.875.658.8.62.799 1.549M66.696 0a2.7 2.7 0 0 1 1.836.774 2.4 2.4 0 0 1 .798 1.742v18.968q-.24 2.322-2.634 2.516a2.97 2.97 0 0 1-1.956-.697 2.38 2.38 0 0 1-.799-1.82V2.517q.04-1.084.839-1.78Q65.577 0 66.696 0M82.66 23.458q-3.512-.116-5.308-1.587-1.797-1.51-2.595-3.368-.798-1.896-.798-3.832 0-2.013.758-3.871.799-1.897 2.595-3.368 1.836-1.509 4.63-1.548h12.932q2.793.039 4.59 1.548 1.835 1.47 2.594 3.368a9.7 9.7 0 0 1 .798 3.87q0 1.937-.798 3.833-.798 1.858-2.594 3.368-1.797 1.47-5.309 1.587zm-.878-12.387q-.758 0-1.317.62a3.7 3.7 0 0 0-.838 1.393 5.2 5.2 0 0 0-.24 1.548q0 .813.24 1.626.279.774.838 1.393.559.582 1.317.62h13.251q.759-.038 1.317-.62.56-.618.799-1.393a5 5 0 0 0 .279-1.626q0-.774-.28-1.548a3.3 3.3 0 0 0-.798-1.394q-.558-.62-1.317-.62h-13.25ZM111.428 24a2.857 2.857 0 1 0 0-5.714 2.857 2.857 0 0 0 0 5.714"/></g><defs><clipPath id="a"><path fill="#fff" d="M0 0h115v24H0z"/></clipPath></defs></svg>