<svg xmlns="http://www.w3.org/2000/svg" width="14" height="14" fill="none"><path fill="#fff" d="M7.002 3.41A3.583 3.583 0 0 0 3.412 7a3.583 3.583 0 0 0 3.59 3.59A3.583 3.583 0 0 0 10.59 7a3.583 3.583 0 0 0-3.588-3.59m0 5.924A2.34 2.34 0 0 1 4.668 7a2.336 2.336 0 0 1 2.334-2.334A2.336 2.336 0 0 1 9.335 7a2.34 2.34 0 0 1-2.333 2.334m4.572-6.07a.835.835 0 0 1-.837.837.837.837 0 1 1 .837-.837m2.377.85c-.053-1.122-.31-2.115-1.13-2.934C12 .362 11.008.105 9.886.05c-1.155-.066-4.619-.066-5.774 0C2.994.101 2 .357 1.18 1.176.358 1.995.105 2.989.05 4.11c-.066 1.156-.066 4.62 0 5.777C.101 11.008.357 12 1.18 12.82c.821.818 1.811 1.075 2.933 1.13 1.155.066 4.619.066 5.774 0 1.122-.052 2.115-.308 2.933-1.13.819-.819 1.075-1.812 1.13-2.933.066-1.156.066-4.618 0-5.774Zm-1.493 7.013a2.36 2.36 0 0 1-1.33 1.33c-.922.366-3.108.282-4.126.282s-3.208.08-4.126-.282a2.36 2.36 0 0 1-1.33-1.33C1.18 10.205 1.263 8.018 1.263 7s-.081-3.208.281-4.127a2.36 2.36 0 0 1 1.33-1.33c.922-.366 3.108-.282 4.127-.282s3.207-.08 4.125.281a2.36 2.36 0 0 1 1.33 1.331c.366.922.282 3.109.282 4.127s.084 3.208-.281 4.127Z"/></svg>