<svg xmlns="http://www.w3.org/2000/svg" width="110" height="24" fill="none"><g fill="#060612" clip-path="url(#a)"><path d="M0 .08h1.602l17.335 23.903h-2.98L2.403 5.238v18.745H0zM27.58.063q2.503 0 4.684.93a12 12 0 0 1 3.802 2.547 11.9 11.9 0 0 1 2.55 3.797q.932 2.18.932 4.678 0 2.5-.942 4.679a12.1 12.1 0 0 1-2.564 3.797 12.2 12.2 0 0 1-3.8 2.563q-2.18.945-4.678.945v-2.403q1.954 0 3.7-.752a9.9 9.9 0 0 0 3.06-2.047 9.5 9.5 0 0 0 2.068-3.039 9.3 9.3 0 0 0 .752-3.727q0-2.015-.752-3.758a9.53 9.53 0 0 0-5.127-5.07 9.4 9.4 0 0 0-3.701-.736 9.7 9.7 0 0 0-3.781.737 9.6 9.6 0 0 0-3.076 2.034 9.5 9.5 0 0 0-2.067 3.044q-.753 1.747-.753 3.765H15.58q0-2.499.946-4.678a12.2 12.2 0 0 1 2.567-3.8 12.1 12.1 0 0 1 3.802-2.564Q25.077.063 27.58.063M41.822.032h1.602L60.76 23.936h-2.98L44.225 5.19v18.745h-2.403zm21.244.031h1.763l10.221 12.53L85.112.062h3.012l-12.209 15.22H74.41L65.47 4.679V24h-2.403zM109.496 0H90.303v2.403h19.193zm.032 12.785H92.706v8.812h16.822V24H90.303V10.382h19.225z"/></g><defs><clipPath id="a"><path fill="#fff" d="M0 0h110v24H0z"/></clipPath></defs></svg>