<svg xmlns="http://www.w3.org/2000/svg" width="26" height="26" fill="none"><path fill="#FF6321" d="M13 26c7.18 0 13-5.82 13-13S20.18 0 13 0 0 5.82 0 13s5.82 13 13 13"/><path fill="#060612" d="M9.026 14.807a.54.54 0 0 1 .478.287c.627 1.18 2 1.941 3.497 1.941s2.87-.762 3.497-1.941a.54.54 0 1 1 .954.507c-.812 1.527-2.56 2.515-4.452 2.515s-3.638-.988-4.45-2.515a.54.54 0 0 1 .476-.794M3.61 10.686a.54.54 0 0 1-.49-.768c.036-.077.89-1.875 2.448-2.023 1.043-.1 2.075.552 3.072 1.935a.54.54 0 0 1-.876.631c-.52-.721-1.306-1.566-2.093-1.49-.934.088-1.565 1.39-1.57 1.402a.54.54 0 0 1-.49.313Zm14.19 0a.54.54 0 0 1-.49-.768c.037-.077.89-1.875 2.449-2.023 1.042-.1 2.075.552 3.072 1.935a.54.54 0 1 1-.877.631c-.52-.721-1.306-1.566-2.093-1.49-.934.088-1.564 1.39-1.57 1.402a.54.54 0 0 1-.49.313Z"/></svg>