<svg xmlns="http://www.w3.org/2000/svg" width="130" height="28" fill="none"><g fill="#060612" clip-path="url(#a)"><path d="M10.112 28v-8.64h7.17v-.552L0 1.526V28zM18.7 0v8.641h-7.17v.552l17.28 17.282V0zm38.498 2.148v20.264h-2.642L43.931 6.3v16.112h-2.642V2.148h2.642l10.625 16.084V2.148zm11.378 20.526c-4.528 0-7.867-3.193-7.867-8.244 0-5.023 3.222-8.187 7.867-8.187 4.616 0 7.635 3.251 7.635 7.606 0 .58-.029 1.045-.087 1.596H63.41c.203 3.223 2.467 4.994 5.167 4.994 2.38 0 3.89-1.22 4.47-2.932h2.846c-.813 2.903-3.368 5.167-7.316 5.167Zm-5.138-9.377h10.044c.03-3.106-2.293-4.819-5.022-4.819-2.584 0-4.732 1.713-5.022 4.82Zm20.787 3.193-3.63 5.922h-2.757l5.138-7.896-5.138-8.013h2.99l3.774 5.893 3.6-5.893h2.758l-5.11 7.867 5.139 8.042h-2.99zm9.957-7.81h-2.06V6.504h2.06V2.497h2.642v4.006h4.152v2.178h-4.152v9.377c0 1.567.58 2.119 2.206 2.119h1.946v2.235h-2.381c-2.816 0-4.413-1.161-4.413-4.354zm16.867 13.994c-4.529 0-7.867-3.193-7.867-8.244 0-5.023 3.222-8.187 7.867-8.187 4.616 0 7.635 3.251 7.635 7.606 0 .58-.029 1.045-.087 1.596h-12.716c.204 3.223 2.468 4.994 5.168 4.994 2.38 0 3.89-1.22 4.471-2.932h2.845c-.813 2.903-3.368 5.167-7.316 5.167m-5.138-9.377h10.044c.029-3.106-2.293-4.819-5.022-4.819-2.584 0-4.732 1.713-5.022 4.82Zm18.899 9.115h-2.642V6.504h2.642v2.583c.9-1.77 2.613-2.874 5.138-2.874v2.73h-.696c-2.526 0-4.442 1.131-4.442 4.818z"/></g><defs><clipPath id="a"><path fill="#fff" d="M0 0h130v28H0z"/></clipPath></defs></svg>