<svg xmlns="http://www.w3.org/2000/svg" width="107" height="34" fill="none"><rect width="33.056" height="33.056" x=".472" y=".472" fill="#F5F4F3" stroke="#E7E2DD" stroke-width=".944" rx="7.078"/><path fill="#FF6321" d="m13.942 11.004 5.506 5.482c.293.293.293.758 0 1.027l-5.506 5.482c-.294.293-.758.293-1.028 0l-5.48-5.482c-.295-.293-.295-.758 0-1.027l5.48-5.482c.294-.293.759-.293 1.028 0"/><path fill="#060612" d="m21.748 17.513-4.38 4.38a.735.735 0 0 0 .244 1.2 6.8 6.8 0 0 0 2.35.44 6.51 6.51 0 0 0 6.484-7.219c-.318-3.01-2.716-5.432-5.702-5.799a6.6 6.6 0 0 0-3.107.391c-.49.196-.636.832-.27 1.2l4.38 4.38a.71.71 0 0 1 0 1.027Zm20.67 6.987L48.05 8.88h3.498L57.18 24.5h-2.992l-1.298-3.696h-6.182L45.41 24.5zm5.126-6.138h4.51l-2.244-6.6zM63 28.064q-1.54 0-2.64-.418-1.101-.419-1.782-1.188a4.24 4.24 0 0 1-.925-1.738l2.904-.198q.22.66.748 1.034.55.375 1.694.374 1.299 0 2.002-.594.704-.572.704-1.804v-1.496q-.417.858-1.341 1.386-.925.506-2.069.506-1.452 0-2.596-.704-1.12-.726-1.76-2.002-.638-1.298-.638-2.992 0-1.695.616-2.97.639-1.298 1.76-2.024 1.122-.748 2.575-.748 1.276 0 2.2.572a3.35 3.35 0 0 1 1.341 1.518v-1.826h2.75v10.714q0 1.495-.704 2.53-.681 1.035-1.936 1.54-1.23.528-2.904.528Zm-.044-6.336q1.253 0 2.001-.924.75-.945.77-2.596.023-1.1-.33-1.87-.33-.792-.968-1.21-.615-.44-1.474-.44-1.298 0-2.023.968-.705.945-.705 2.552 0 1.606.727 2.574.747.945 2.002.946m8.01 2.772V12.752h2.552l.11 3.3-.33-.132q.176-1.232.726-1.98a3.33 3.33 0 0 1 1.342-1.1 4.2 4.2 0 0 1 1.738-.352q1.297 0 2.178.572.902.572 1.364 1.584.462.99.462 2.31V24.5h-2.816v-6.644q0-.99-.198-1.672-.198-.683-.66-1.034-.44-.374-1.188-.374-1.122 0-1.804.792-.66.792-.66 2.288V24.5zm17.378.264q-1.738 0-3.058-.748a5.3 5.3 0 0 1-2.024-2.156q-.704-1.386-.704-3.234 0-1.87.704-3.234.725-1.386 2.024-2.134 1.32-.77 3.058-.77t3.036.77a5.03 5.03 0 0 1 2.002 2.134q.726 1.364.726 3.234 0 1.848-.726 3.234a5.17 5.17 0 0 1-2.002 2.156q-1.299.748-3.036.748m0-2.288q1.364 0 2.09-1.012.748-1.012.748-2.838 0-1.804-.748-2.816-.726-1.034-2.09-1.034-1.365 0-2.112 1.034-.748 1.012-.748 2.816 0 1.825.748 2.838.747 1.012 2.112 1.012m12.051 2.288q-1.738 0-2.926-.506-1.167-.506-1.804-1.408a4 4 0 0 1-.726-2.046l2.882-.132q.153.924.77 1.43.615.506 1.826.506.99 0 1.54-.308.572-.33.572-1.012a1.07 1.07 0 0 0-.198-.66q-.199-.264-.748-.462-.55-.198-1.628-.396-1.805-.308-2.838-.748-1.035-.463-1.474-1.144-.418-.683-.418-1.694 0-1.65 1.254-2.662 1.275-1.035 3.718-1.034 1.584 0 2.662.528 1.078.506 1.672 1.408.615.88.77 2.024l-2.838.132a2.8 2.8 0 0 0-.396-1.034 1.8 1.8 0 0 0-.77-.66q-.484-.242-1.144-.242-.99 0-1.496.396a1.27 1.27 0 0 0-.506 1.056q0 .462.22.77.242.308.77.506.528.175 1.408.33 1.848.286 2.904.748 1.077.44 1.518 1.144.462.683.462 1.65 0 1.122-.638 1.914-.617.792-1.76 1.21-1.122.396-2.64.396"/></svg>