<svg xmlns="http://www.w3.org/2000/svg" width="30" height="30" fill="none"><g fill="#EEECEA" clip-path="url(#a)" filter="url(#b)"><path d="m20.652 16.7-7.35-7.35a2.16 2.16 0 0 0-2.057-.564L4.53 10.543a2.13 2.13 0 0 0-1.6 2.094A41.7 41.7 0 0 1 .096 28.07a1.42 1.42 0 0 0 1.827 1.83 41.7 41.7 0 0 1 15.435-2.828 2.13 2.13 0 0 0 2.094-1.6l1.764-6.715a2.16 2.16 0 0 0-.564-2.057m-6.658 4.392a3.596 3.596 0 1 1-5.086-5.086 3.596 3.596 0 0 1 5.086 5.086M29.373 9.213 20.788.627a2.143 2.143 0 0 0-3.03 0l-3.055 3.055a2.143 2.143 0 0 0 0 3.03l8.586 8.585a2.14 2.14 0 0 0 3.03 0l3.054-3.054a2.143 2.143 0 0 0 0-3.03"/></g><defs><clipPath id="a"><path fill="#fff" d="M0 0h30v30H0z"/></clipPath><filter id="b" width="30" height="30.944" x="0" y="0" color-interpolation-filters="sRGB" filterUnits="userSpaceOnUse"><feFlood flood-opacity="0" result="BackgroundImageFix"/><feBlend in="SourceGraphic" in2="BackgroundImageFix" result="shape"/><feColorMatrix in="SourceAlpha" result="hardAlpha" values="0 0 0 0 0 0 0 0 0 0 0 0 0 0 0 0 0 0 127 0"/><feOffset dy=".944"/><feGaussianBlur stdDeviation="1.416"/><feComposite in2="hardAlpha" k2="-1" k3="1" operator="arithmetic"/><feColorMatrix values="0 0 0 0 0 0 0 0 0 0 0 0 0 0 0 0 0 0 0.18 0"/><feBlend in2="shape" result="effect1_innerShadow_759_286"/><feColorMatrix in="SourceAlpha" result="hardAlpha" values="0 0 0 0 0 0 0 0 0 0 0 0 0 0 0 0 0 0 127 0"/><feOffset dy=".472"/><feComposite in2="hardAlpha" k2="-1" k3="1" operator="arithmetic"/><feColorMatrix values="0 0 0 0 1 0 0 0 0 1 0 0 0 0 1 0 0 0 1 0"/><feBlend in2="effect1_innerShadow_759_286" result="effect2_innerShadow_759_286"/></filter></defs></svg>