<svg xmlns="http://www.w3.org/2000/svg" width="26" height="26" fill="none"><path fill="#FF6321" d="M13 26c7.18 0 13-5.82 13-13S20.18 0 13 0 0 5.82 0 13s5.82 13 13 13"/><path fill="#060612" d="M9.136 10.759a1.652 1.652 0 1 0-3.216-.763 1.652 1.652 0 1 0 3.216.763m10.904.786c.645-.648.645-1.7 0-2.348a1.647 1.647 0 0 0-2.337 0 1.666 1.666 0 0 0 0 2.348 1.647 1.647 0 0 0 2.337 0m-2.865 7.172a.54.54 0 0 1-.477-.288c-.627-1.185-2-1.95-3.497-1.95-1.498 0-2.87.765-3.497 1.95a.54.54 0 0 1-.73.225.544.544 0 0 1-.224-.734c.812-1.535 2.56-2.527 4.451-2.527 1.892 0 3.639.992 4.451 2.527a.544.544 0 0 1-.477.797"/></svg>