<svg xmlns="http://www.w3.org/2000/svg" width="30" height="24" fill="none"><g clip-path="url(#a)" filter="url(#b)"><path fill="#EEECEA" fill-rule="evenodd" d="M6.231.003C4.52.003 3.253 1.5 3.31 3.126c.055 1.561-.016 3.583-.525 5.231C2.274 10.011 1.41 11.06 0 11.193v1.518c1.41.135 2.273 1.182 2.784 2.836.51 1.648.58 3.67.525 5.231-.056 1.625 1.21 3.123 2.922 3.123h17.54c1.712 0 2.978-1.498 2.922-3.123-.055-1.56.016-3.582.525-5.231.51-1.654 1.372-2.701 2.782-2.836v-1.518c-1.41-.135-2.271-1.182-2.782-2.836-.51-1.648-.58-3.67-.525-5.231.056-1.625-1.21-3.123-2.922-3.123zm14.108 14.71c0 2.238-1.669 3.595-4.438 3.595h-4.715a.51.51 0 0 1-.508-.508V6.105a.51.51 0 0 1 .508-.509h4.688c2.31 0 3.825 1.251 3.825 3.171 0 1.348-1.02 2.555-2.319 2.767v.07c1.768.194 2.959 1.419 2.959 3.11Zm-4.952-7.505h-2.688v3.797h2.264c1.75 0 2.715-.705 2.715-1.965 0-1.18-.83-1.832-2.291-1.832m-2.688 5.303v4.185h2.787c1.822 0 2.787-.732 2.787-2.106s-.992-2.079-2.905-2.079h-2.67Z" clip-rule="evenodd"/></g><defs><clipPath id="a"><path fill="#fff" d="M0 0h30v23.904H0z"/></clipPath><filter id="b" width="30" height="25.158" x="0" y="0" color-interpolation-filters="sRGB" filterUnits="userSpaceOnUse"><feFlood flood-opacity="0" result="BackgroundImageFix"/><feBlend in="SourceGraphic" in2="BackgroundImageFix" result="shape"/><feColorMatrix in="SourceAlpha" result="hardAlpha" values="0 0 0 0 0 0 0 0 0 0 0 0 0 0 0 0 0 0 127 0"/><feOffset dy="1.254"/><feGaussianBlur stdDeviation="1.881"/><feComposite in2="hardAlpha" k2="-1" k3="1" operator="arithmetic"/><feColorMatrix values="0 0 0 0 0 0 0 0 0 0 0 0 0 0 0 0 0 0 0.18 0"/><feBlend in2="shape" result="effect1_innerShadow_759_221"/><feColorMatrix in="SourceAlpha" result="hardAlpha" values="0 0 0 0 0 0 0 0 0 0 0 0 0 0 0 0 0 0 127 0"/><feOffset dy=".627"/><feComposite in2="hardAlpha" k2="-1" k3="1" operator="arithmetic"/><feColorMatrix values="0 0 0 0 1 0 0 0 0 1 0 0 0 0 1 0 0 0 1 0"/><feBlend in2="effect1_innerShadow_759_221" result="effect2_innerShadow_759_221"/></filter></defs></svg>