<svg xmlns="http://www.w3.org/2000/svg" width="30" height="30" fill="none"><g fill="#EEECEA" clip-path="url(#a)" filter="url(#b)"><path d="M.857 10.724s-.71-.521.143-1.217l1.985-1.808s.568-.609 1.169-.079l18.322 14.127v6.773s-.009 1.064-1.35.946L.858 10.724Z"/><path d="M5.58 15.09.859 19.462s-.485.368 0 1.025l2.193 2.03s.52.57 1.29-.078l5.007-3.866zm8.292.036 8.661-6.735-.056-6.738s-.37-1.47-1.604-.705L9.348 11.63z"/><path d="M21.128 29.476c.503.524 1.112.353 1.112.353l6.75-3.387c.864-.6.742-1.344.742-1.344V4.873c0-.889-.893-1.196-.893-1.196L22.989.805C21.71 0 20.873.95 20.873.95s1.077-.79 1.604.705v26.742c0 .184-.039.365-.116.528-.153.316-.488.611-1.29.488z"/></g><defs><clipPath id="a"><path fill="#fff" d="M0 0h30v30H0z"/></clipPath><filter id="b" width="30" height="31.259" x="0" y="0" color-interpolation-filters="sRGB" filterUnits="userSpaceOnUse"><feFlood flood-opacity="0" result="BackgroundImageFix"/><feBlend in="SourceGraphic" in2="BackgroundImageFix" result="shape"/><feColorMatrix in="SourceAlpha" result="hardAlpha" values="0 0 0 0 0 0 0 0 0 0 0 0 0 0 0 0 0 0 127 0"/><feOffset dy="1.259"/><feGaussianBlur stdDeviation="1.888"/><feComposite in2="hardAlpha" k2="-1" k3="1" operator="arithmetic"/><feColorMatrix values="0 0 0 0 0 0 0 0 0 0 0 0 0 0 0 0 0 0 0.18 0"/><feBlend in2="shape" result="effect1_innerShadow_759_254"/><feColorMatrix in="SourceAlpha" result="hardAlpha" values="0 0 0 0 0 0 0 0 0 0 0 0 0 0 0 0 0 0 127 0"/><feOffset dy=".629"/><feComposite in2="hardAlpha" k2="-1" k3="1" operator="arithmetic"/><feColorMatrix values="0 0 0 0 1 0 0 0 0 1 0 0 0 0 1 0 0 0 1 0"/><feBlend in2="effect1_innerShadow_759_254" result="effect2_innerShadow_759_254"/></filter></defs></svg>