<svg xmlns="http://www.w3.org/2000/svg" width="100" height="157" fill="none"><g fill="#EEECEA" clip-path="url(#a)"><path d="M99.963 138.438c-.766-24.431-9.186-45.92-21.661-59.483.692 4.736 1.112 9.335 1.248 13.712.235 7.406.174 16.654-.16 24.74-.285 6.689-.866 15.69-2.102 20.672l-.52 2.127 23.232-.717a41 41 0 0 0-.037-1.051m-77.251-.358c-1.236-4.983-1.83-13.996-2.114-20.672-.333-8.099-.408-17.347-.185-24.74.136-4.378.556-8.977 1.249-13.725C9.186 92.52.779 114.02.025 138.451L0 139.49l23.232.717z"/><path fill-rule="evenodd" d="M76.767 95.672c0 14.107-1.174 36.412-3.251 44.535H26.47c-2.065-8.123-3.24-30.428-3.24-44.535C23.231 50.618 50 0 50 0s26.768 50.618 26.768 95.672ZM61.61 58.506c0-6.417-5.205-11.61-11.61-11.61s-11.61 5.193-11.61 11.61c0 6.405 5.206 11.597 11.61 11.597 6.405 0 11.61-5.192 11.61-11.597" clip-rule="evenodd"/><path d="M73.49 143.25H26.484L15.9 156.591h68.175L73.491 143.25Z"/></g><defs><clipPath id="a"><path fill="#fff" d="M0 0h100v157H0z"/></clipPath></defs></svg>