<svg xmlns="http://www.w3.org/2000/svg" width="40" height="40" fill="none"><path fill="#060612" d="M31.962 35.313H5.399a1.17 1.17 0 0 0-1.171 1.171v2.344c0 .647.524 1.172 1.171 1.172h26.563c.647 0 1.172-.525 1.172-1.172v-2.344c0-.647-.525-1.172-1.172-1.172ZM7.353 30.625v2.344h22.656v-2.344c0-.647-.525-1.172-1.172-1.172H8.524c-.647 0-1.171.525-1.171 1.172m-2.415-8.688 1.991.853c-.353-4.556.41-8.737 2.222-12.133 1.895-3.552 4.85-6.247 8.811-8.048a15 15 0 0 0-.677.053c-2.294.234-4.367.995-6.162 2.262-1.99 1.405-3.583 3.399-4.735 5.928-1.238 2.72-1.965 6.066-2.159 9.949-.024.49.258.942.709 1.136"/><path fill="#060612" d="m35.057 13.616-6.672-7.34-.731-5.265a1.172 1.172 0 0 0-2.01-.647L22.751 3.4c-5.46 1.437-9.339 4.248-11.532 8.359-1.696 3.178-2.349 7.182-1.888 11.579.157 1.492.414 2.789.652 3.77h16.9v-2.343c0-.245-.076-.483-.218-.682l-2.797-3.915a1.43 1.43 0 0 1 .02-1.696 1.44 1.44 0 0 1 1.681-.471l4.881 1.952a2.72 2.72 0 0 0 3.15-.83l1.569-1.96a2.72 2.72 0 0 0-.112-3.548ZM24.54 12.578a1.172 1.172 0 1 1 0-2.344 1.172 1.172 0 0 1 0 2.344"/></svg>