<svg xmlns="http://www.w3.org/2000/svg" width="6" height="9" fill="none"><g clip-path="url(#a)"><mask id="b" width="6" height="9" x="0" y="0" maskUnits="userSpaceOnUse" style="mask-type:luminance"><path fill="#fff" d="M6 0H0v9h6V0Z"/></mask><g mask="url(#b)"><mask id="c" width="6" height="9" x="0" y="0" maskUnits="userSpaceOnUse" style="mask-type:luminance"><path fill="#fff" d="M0 9h6V0H0v9Z"/></mask><g fill="#060612" mask="url(#c)"><path d="M5.125 5.5a.875.875 0 1 0 0-1.75.875.875 0 0 0 0 1.75Zm-1.75 1.75a.875.875 0 1 0 0-1.75.875.875 0 0 0 0 1.75ZM1.625 9a.875.875 0 1 0 0-1.75.875.875 0 0 0 0 1.75Zm1.75-5.25a.875.875 0 1 0 0-1.75.875.875 0 0 0 0 1.75ZM1.625 2a.875.875 0 1 0 0-1.75.875.875 0 0 0 0 1.75Z"/></g></g></g><defs><clipPath id="a"><path fill="#fff" d="M0 0h6v9H0z"/></clipPath></defs></svg>