<svg xmlns="http://www.w3.org/2000/svg" width="29" height="30" fill="none"><g fill="#EEECEA" clip-path="url(#a)" filter="url(#b)"><path d="M10.072.942c-4.59.34-8.493.652-8.677.689-.514.091-.982.44-1.202.9L0 2.935l.019 9.632.027 9.632.294.597c.165.33 1.285 1.873 2.506 3.461 2.415 3.131 2.59 3.306 3.508 3.398.266.027 2.268-.065 4.435-.193 2.176-.137 5.665-.349 7.759-.468 8.943-.543 8.483-.497 8.997-.938.643-.532.597.34.624-11.367.019-9.926.01-10.577-.137-10.88-.174-.34-.487-.579-4.564-3.444-2.727-1.91-2.92-2.01-4.141-2.03-.505-.017-4.673.258-9.255.607M20.392 2.2c.386.174 3.205 2.139 3.618 2.516.11.11.147.202.092.257-.128.11-17.575 1.148-18.08 1.074a2.3 2.3 0 0 1-.761-.303c-.8-.542-2.782-2.167-2.782-2.286 0-.312-.065-.312 7.713-.872a531 531 0 0 0 5.418-.404c3.222-.257 4.186-.248 4.782.018m5.547 5.023c.128.128.238.376.275.614.027.221.046 4.335.027 9.127-.027 8.227-.037 8.742-.193 8.98-.091.147-.275.304-.413.35-.385.156-18.666 1.193-19.043 1.083a1.4 1.4 0 0 1-.541-.321l-.221-.239-.027-8.87c-.019-6.225 0-8.98.073-9.227.056-.184.193-.405.313-.478.165-.11 1.249-.202 4.977-.422 2.617-.147 6.666-.395 8.989-.532 5.526-.34 5.508-.34 5.784-.065"/><path d="M21.026 10.26c-.992.065-1.873.157-1.974.212-.303.156-.487.414-.523.707-.028.303.064.34 1.055.46l.432.055v3.92c0 2.332-.037 3.875-.083 3.83-.046-.056-1.35-2.039-2.901-4.408a581 581 0 0 0-2.856-4.352c-.019-.018-1.028.037-2.24.12-1.488.1-2.305.192-2.47.284-.267.138-.56.624-.56.946 0 .193.348.294 1.083.294h.385v11.275l-.624.193c-.486.147-.652.239-.734.422-.147.313-.138.597.009.597.055 0 1.093-.064 2.286-.137 2.36-.138 2.626-.203 2.874-.69.073-.146.137-.302.137-.348 0-.037-.32-.147-.707-.239l-.872-.202c-.156-.046-.166-.33-.166-4.279v-4.233l2.792 4.38c2.929 4.59 3.296 5.115 3.746 5.344.56.294 1.984.092 2.7-.376l.22-.138.019-6.262.027-6.271.487-.092c.578-.11.845-.376.845-.835 0-.294-.019-.313-.294-.303-.164.007-1.11.062-2.093.127Z"/></g><defs><clipPath id="a"><path fill="#fff" d="M0 0h28.188v30H0z"/></clipPath><filter id="b" width="28.189" height="31.364" x="0" y="0" color-interpolation-filters="sRGB" filterUnits="userSpaceOnUse"><feFlood flood-opacity="0" result="BackgroundImageFix"/><feBlend in="SourceGraphic" in2="BackgroundImageFix" result="shape"/><feColorMatrix in="SourceAlpha" result="hardAlpha" values="0 0 0 0 0 0 0 0 0 0 0 0 0 0 0 0 0 0 127 0"/><feOffset dy="1.364"/><feGaussianBlur stdDeviation="2.045"/><feComposite in2="hardAlpha" k2="-1" k3="1" operator="arithmetic"/><feColorMatrix values="0 0 0 0 0 0 0 0 0 0 0 0 0 0 0 0 0 0 0.18 0"/><feBlend in2="shape" result="effect1_innerShadow_759_212"/><feColorMatrix in="SourceAlpha" result="hardAlpha" values="0 0 0 0 0 0 0 0 0 0 0 0 0 0 0 0 0 0 127 0"/><feOffset dy=".682"/><feComposite in2="hardAlpha" k2="-1" k3="1" operator="arithmetic"/><feColorMatrix values="0 0 0 0 1 0 0 0 0 1 0 0 0 0 1 0 0 0 1 0"/><feBlend in2="effect1_innerShadow_759_212" result="effect2_innerShadow_759_212"/></filter></defs></svg>