<svg xmlns="http://www.w3.org/2000/svg" width="91" height="32" fill="none"><g clip-path="url(#a)"><path fill="#060612" d="M20.7 10.73c.484 1.717.665 3.5.665 5.28a11.8 11.8 0 0 0-3.402 2.485 12.4 12.4 0 0 0-2.1 2.944v-5.46c0-3.252-1.124-5.41-4.676-5.41-3.271 0-5.685 2.058-5.685 5.41v11.737c0 3.717-5.502 3.717-5.502 0V8.78c0-3.718 5.502-3.718 5.502 0 .015.325.038.472.049.65 1.475-1.577 2.556-2.658 4.673-3.424 4.272-1.547 9.185.138 10.476 4.723Zm70.064-2.461-4.238 2.447-4.238 2.447v-2.43q-.147.015-.303.017c-4.165.05-10.619.09-14.783.14-3.044.17-4.674.944-5.826 2.276l-4.446 5.418-2.889-3.989 4.05-5.366c1.57-1.847 4.793-3.542 7.513-3.45l16.38-.072q.157 0 .304.013V3.375l4.238 2.447zM72.98 2.793v2.301h-5.501V2.793c0-3.647 5.501-3.8 5.501 0m0 2.972v19.633q0 .642.252 1.055c.52.851 1.795.951 2.637.573.801-.361 1.622-.29 2.223.39q.528.595.528 1.65c0 2.016-2.737 2.934-4.402 2.934-2.511 0-4.767-.444-6.052-2.843q-.687-1.283-.687-3.53V5.765zm-26.41.12q1.329 0 2.246 1.145l15.313 19.027a2.55 2.55 0 0 1 .596 1.65q0 1.146-.871 1.972c-.871.826-1.223.825-1.926.825q-1.33 0-2.246-1.192L44.367 10.286a2.55 2.55 0 0 1-.596-1.65q0-1.194.848-1.972.848-.78 1.948-.78Zm.805 17.007 4.237-5.18 2.751 4.585-3.51 4.44c-2.557 2.644-4.225 4.231-8.492 4.92-9.711 1.567-19.616-2.302-19.376-10.157-.877.674-1.517 1.585-1.62 2.699v3.517c0 3.717-5.501 3.717-5.501 0l.026-3.478c.27-2.893 2.733-5.706 5.658-7.401 1.805-1.046 4.582-1.52 6.62-1.502H39.86c0-2.93-2.92-4.922-5.643-4.922-2.876 0-4.946 1.065-5.915 3.883l-.062.191c-1.805.12-3.622.338-5.399.924.26-1.452.735-2.834 1.42-4.027 2.083-3.623 5.737-5.937 9.956-5.937 3.073 0 5.879 1.342 7.99 3.544 2.183 2.276 3.432 5.261 3.432 8.42-.062 1.483-1.33 2.438-2.754 2.438H27.98c-.463 4.971 5.738 7.441 11.932 6.856 3.243-.307 5.052-1.25 7.462-3.813Z"/></g><defs><clipPath id="a"><path fill="#fff" d="M0 0h91v32H0z"/></clipPath></defs></svg>