<svg xmlns="http://www.w3.org/2000/svg" width="20" height="30" fill="none"><g fill="#EEECEA" clip-path="url(#a)" filter="url(#b)"><path d="M10.002 15a5 5 0 1 1 10 0 5 5 0 0 1-10 0m-10 10a5 5 0 0 1 5-5h5v5a5 5 0 0 1-10 0"/><path d="M10.002 0v10h5a5 5 0 1 0 0-10zm-10 5a5 5 0 0 0 5 5h5V0h-5a5 5 0 0 0-5 5m0 10a5 5 0 0 0 5 5h5V10h-5a5 5 0 0 0-5 5"/></g><defs><clipPath id="a"><path fill="#fff" d="M0 0h20.004v30H0z"/></clipPath><filter id="b" width="20.004" height="31.209" x="0" y="0" color-interpolation-filters="sRGB" filterUnits="userSpaceOnUse"><feFlood flood-opacity="0" result="BackgroundImageFix"/><feBlend in="SourceGraphic" in2="BackgroundImageFix" result="shape"/><feColorMatrix in="SourceAlpha" result="hardAlpha" values="0 0 0 0 0 0 0 0 0 0 0 0 0 0 0 0 0 0 127 0"/><feOffset dy="1.209"/><feGaussianBlur stdDeviation="1.813"/><feComposite in2="hardAlpha" k2="-1" k3="1" operator="arithmetic"/><feColorMatrix values="0 0 0 0 0 0 0 0 0 0 0 0 0 0 0 0 0 0 0.18 0"/><feBlend in2="shape" result="effect1_innerShadow_759_246"/><feColorMatrix in="SourceAlpha" result="hardAlpha" values="0 0 0 0 0 0 0 0 0 0 0 0 0 0 0 0 0 0 127 0"/><feOffset dy=".604"/><feComposite in2="hardAlpha" k2="-1" k3="1" operator="arithmetic"/><feColorMatrix values="0 0 0 0 1 0 0 0 0 1 0 0 0 0 1 0 0 0 1 0"/><feBlend in2="effect1_innerShadow_759_246" result="effect2_innerShadow_759_246"/></filter></defs></svg>