<svg xmlns="http://www.w3.org/2000/svg" width="82" height="15" fill="none"><path fill="#FF6321" d="M15.139 5.424a1.05 1.05 0 0 0-.844-.71l-3.987-.58-1.782-3.6c-.353-.712-1.52-.712-1.872 0l-1.782 3.6-3.978.58a1.046 1.046 0 0 0-.579 1.78l2.886 2.812-.68 3.968a1.044 1.044 0 0 0 1.515 1.1L7.589 12.5l3.564 1.874a1.04 1.04 0 0 0 1.1-.078c.322-.235.483-.63.416-1.022l-.68-3.968 2.886-2.812c.285-.277.387-.692.264-1.07m16.702 0a1.04 1.04 0 0 0-.844-.71l-3.987-.58-1.782-3.6c-.353-.712-1.52-.712-1.872 0l-1.782 3.6-3.978.58a1.046 1.046 0 0 0-.578 1.78l2.885 2.812-.68 3.968a1.046 1.046 0 0 0 1.515 1.1l3.554-1.874 3.563 1.874a1.04 1.04 0 0 0 1.1-.078c.322-.235.483-.63.416-1.022l-.68-3.968 2.886-2.812c.285-.277.387-.692.264-1.07m16.703 0a1.05 1.05 0 0 0-.843-.71l-3.988-.58-1.782-3.6c-.353-.712-1.519-.712-1.872 0l-1.782 3.6-3.978.58a1.046 1.046 0 0 0-.578 1.78l2.885 2.812-.68 3.968c-.067.391.093.788.415 1.022.322.232.75.263 1.1.078l3.554-1.874 3.564 1.874a1.04 1.04 0 0 0 1.1-.078c.321-.235.482-.63.415-1.022l-.68-3.968 2.886-2.812c.285-.277.387-.692.264-1.07m16.703 0a1.05 1.05 0 0 0-.843-.71l-3.988-.58-1.782-3.6c-.353-.712-1.519-.712-1.872 0l-1.782 3.6-3.978.58a1.046 1.046 0 0 0-.578 1.78l2.885 2.812-.68 3.968c-.067.391.094.788.415 1.022.323.232.75.263 1.1.078l3.554-1.874 3.564 1.874a1.04 1.04 0 0 0 1.1-.078c.322-.235.482-.63.415-1.022l-.68-3.968 2.886-2.812c.285-.277.387-.692.264-1.07"/><path fill="#EEECEA" d="M81.948 5.424a1.05 1.05 0 0 0-.843-.71l-3.988-.58-1.782-3.6c-.352-.712-1.519-.712-1.871 0l-1.782 3.6-3.979.58a1.046 1.046 0 0 0-.578 1.78l2.885 2.812-.68 3.968a1.044 1.044 0 0 0 1.517 1.1L74.4 12.5l3.565 1.874c.35.187.776.155 1.1-.08.32-.233.48-.629.414-1.02l-.68-3.968 2.885-2.813c.285-.276.387-.691.264-1.07Z"/><path fill="#FF6321" d="M81.95 5.424a1.05 1.05 0 0 0-.844-.71l-3.988-.58-1.782-3.6c-.353-.712-1.519-.712-1.871 0l-1.782 3.6-3.979.58a1.046 1.046 0 0 0-.578 1.78l2.885 2.812-.68 3.968c-.067.391.094.788.415 1.022.323.232.75.263 1.1.078L74.4 12.5l3.564 1.874a1.04 1.04 0 0 0 1.1-.078c.322-.235.482-.63.416-1.022l-.68-3.968 2.885-2.812a1.04 1.04 0 0 0 .264-1.07Z"/></svg>